<?xml version="1.0" encoding="utf-8" ?>
<!DOCTYPE svg PUBLIC "-//W3C//DTD SVG 1.1//EN" "http://www.w3.org/Graphics/SVG/1.1/DTD/svg11.dtd">
<svg height="706" version="1.1" width="561" xmlns="http://www.w3.org/2000/svg">
<text font-family="Dialog" font-size="12" x="88" y="370">
Jogador</text>
<ellipse cx="109" cy="319" fill="#000000" rx="8.0" ry="7.5" stroke="#000000" stroke-width="1"/>
<ellipse cx="109" cy="319" fill="#ffffff" rx="7.0" ry="6.5" stroke="#ffffff" stroke-width="1"/>
<line fill="#000000" stroke="#000000" stroke-width="1" x1="109" x2="109" y1="327" y2="342"/>
<line fill="#000000" stroke="#000000" stroke-width="1" x1="99" x2="119" y1="332" y2="332"/>
<line fill="#000000" stroke="#000000" stroke-width="1" x1="109" x2="104" y1="342" y2="357"/>
<line fill="#000000" stroke="#000000" stroke-width="1" x1="109" x2="114" y1="342" y2="357"/>
<text font-family="Dialog" font-size="12" font-style="italic" x="208" y="114">
Usuário</text>
<ellipse cx="229" cy="63" fill="#000000" rx="8.0" ry="7.5" stroke="#000000" stroke-width="1"/>
<ellipse cx="229" cy="63" fill="#ffffff" rx="7.0" ry="6.5" stroke="#ffffff" stroke-width="1"/>
<line fill="#000000" stroke="#000000" stroke-width="1" x1="229" x2="229" y1="71" y2="86"/>
<line fill="#000000" stroke="#000000" stroke-width="1" x1="219" x2="239" y1="76" y2="76"/>
<line fill="#000000" stroke="#000000" stroke-width="1" x1="229" x2="224" y1="86" y2="101"/>
<line fill="#000000" stroke="#000000" stroke-width="1" x1="229" x2="234" y1="86" y2="101"/>
<text font-family="Dialog" font-size="12" x="66" y="570">
Administrador</text>
<ellipse cx="93" cy="519" fill="#000000" rx="8.0" ry="7.5" stroke="#000000" stroke-width="1"/>
<ellipse cx="93" cy="519" fill="#ffffff" rx="7.0" ry="6.5" stroke="#ffffff" stroke-width="1"/>
<line fill="#000000" stroke="#000000" stroke-width="1" x1="93" x2="93" y1="527" y2="542"/>
<line fill="#000000" stroke="#000000" stroke-width="1" x1="83" x2="103" y1="532" y2="532"/>
<line fill="#000000" stroke="#000000" stroke-width="1" x1="93" x2="88" y1="542" y2="557"/>
<line fill="#000000" stroke="#000000" stroke-width="1" x1="93" x2="98" y1="542" y2="557"/>
<text font-family="Dialog" font-size="12" x="131" y="242">
Usuário Cadastrado</text>
<ellipse cx="157" cy="191" fill="#000000" rx="8.0" ry="7.5" stroke="#000000" stroke-width="1"/>
<ellipse cx="157" cy="191" fill="#ffffff" rx="7.0" ry="6.5" stroke="#ffffff" stroke-width="1"/>
<line fill="#000000" stroke="#000000" stroke-width="1" x1="157" x2="157" y1="199" y2="214"/>
<line fill="#000000" stroke="#000000" stroke-width="1" x1="147" x2="167" y1="204" y2="204"/>
<line fill="#000000" stroke="#000000" stroke-width="1" x1="157" x2="152" y1="214" y2="229"/>
<line fill="#000000" stroke="#000000" stroke-width="1" x1="157" x2="162" y1="214" y2="229"/>
<polyline fill="none" points="114,312 152,252" stroke="#333399" stroke-width="1"/>
<polygon fill="#ffffff" points="152,252 151,265 139,258" stroke="#ffffff" stroke-width="1"/>
<polygon fill="none" points="152,252 151,265 139,258" stroke="#333399" stroke-width="1"/>
<polyline fill="none" points="162,184 224,124" stroke="#333399" stroke-width="1"/>
<polygon fill="#ffffff" points="224,124 220,137 210,127" stroke="#ffffff" stroke-width="1"/>
<polygon fill="none" points="224,124 220,137 210,127" stroke="#333399" stroke-width="1"/>
<ellipse cx="328" cy="35" fill="#000000" rx="58.0" ry="21.0" stroke="#000000" stroke-width="1"/>
<ellipse cx="328" cy="35" fill="#ffffff" rx="57.0" ry="20.0" stroke="#ffffff" stroke-width="1"/>
<text font-family="Dialog" font-size="12" x="286" y="36">
Visualizar Decks</text>
<polyline fill="none" points="284,48 238,63" stroke="#333399" stroke-width="1"/>
<ellipse cx="64" cy="201" fill="#000000" rx="50.0" ry="19.0" stroke="#000000" stroke-width="1"/>
<ellipse cx="64" cy="201" fill="#ffffff" rx="49.0" ry="18.0" stroke="#ffffff" stroke-width="1"/>
<text font-family="Dialog" font-size="12" x="33" y="202">
Editar Perfil</text>
<polyline fill="none" points="113,202 147,204" stroke="#333399" stroke-width="1"/>
<ellipse cx="432" cy="313" fill="#000000" rx="50.0" ry="19.0" stroke="#000000" stroke-width="1"/>
<ellipse cx="432" cy="313" fill="#ffffff" rx="49.0" ry="18.0" stroke="#ffffff" stroke-width="1"/>
<text font-family="Dialog" font-size="12" x="404" y="314">
Criar Deck</text>
<polyline fill="none" points="382,315 119,332" stroke="#333399" stroke-width="1"/>
<ellipse cx="413" cy="130" fill="#000000" rx="55.0" ry="20.0" stroke="#000000" stroke-width="1"/>
<ellipse cx="413" cy="130" fill="#ffffff" rx="54.0" ry="19.0" stroke="#ffffff" stroke-width="1"/>
<text font-family="Dialog" font-size="12" x="373" y="131">
Procurar Carta</text>
<polyline fill="none" points="358,128 234,124" stroke="#333399" stroke-width="1"/>
<ellipse cx="307" cy="515" fill="#000000" rx="61.0" ry="21.0" stroke="#000000" stroke-width="1"/>
<ellipse cx="307" cy="515" fill="#ffffff" rx="60.0" ry="20.0" stroke="#ffffff" stroke-width="1"/>
<text font-family="Dialog" font-size="12" x="263" y="516">
Cadastrar Cartas</text>
<polyline fill="none" points="247,519 103,532" stroke="#333399" stroke-width="1"/>
<ellipse cx="304" cy="569" fill="#000000" rx="50.0" ry="19.0" stroke="#000000" stroke-width="1"/>
<ellipse cx="304" cy="569" fill="#ffffff" rx="49.0" ry="18.0" stroke="#ffffff" stroke-width="1"/>
<text font-family="Dialog" font-size="12" x="273" y="570">
Editar Carta</text>
<polyline fill="none" points="259,560 103,532" stroke="#333399" stroke-width="1"/>
<ellipse cx="453" cy="554" fill="#000000" rx="55.0" ry="20.0" stroke="#000000" stroke-width="1"/>
<ellipse cx="453" cy="554" fill="#ffffff" rx="54.0" ry="19.0" stroke="#ffffff" stroke-width="1"/>
<text font-family="Dialog" font-size="12" x="413" y="555">
Remover Carta</text>
<polyline fill="none" points="398,550 103,532" stroke="#333399" stroke-width="1"/>
<ellipse cx="240" cy="429" fill="#000000" rx="66.0" ry="23.0" stroke="#000000" stroke-width="1"/>
<ellipse cx="240" cy="429" fill="#ffffff" rx="65.0" ry="22.0" stroke="#ffffff" stroke-width="1"/>
<text font-family="Dialog" font-size="12" x="188" y="430">
Editar Deck Próprio</text>
<polyline fill="none" points="195,411 114,380" stroke="#333399" stroke-width="1"/>
<ellipse cx="265" cy="366" fill="#000000" rx="75.0" ry="24.0" stroke="#000000" stroke-width="1"/>
<ellipse cx="265" cy="366" fill="#ffffff" rx="74.0" ry="23.0" stroke="#ffffff" stroke-width="1"/>
<text font-family="Dialog" font-size="12" x="204" y="367">
Remover Deck Próprio</text>
<polyline fill="none" points="192,372 114,380" stroke="#333399" stroke-width="1"/>
<polyline fill="none" points="95,511 104,380" stroke="#333399" stroke-width="1"/>
<polygon fill="#ffffff" points="104,380 110,392 96,391" stroke="#ffffff" stroke-width="1"/>
<polygon fill="none" points="104,380 110,392 96,391" stroke="#333399" stroke-width="1"/>
<ellipse cx="450" cy="457" fill="#000000" rx="84.0" ry="27.0" stroke="#000000" stroke-width="1"/>
<ellipse cx="450" cy="457" fill="#ffffff" rx="83.0" ry="26.0" stroke="#ffffff" stroke-width="1"/>
<text font-family="Dialog" font-size="12" x="382" y="458">
Gerenciar Todos os Decks</text>
<polyline fill="none" points="376,470 102,519" stroke="#333399" stroke-width="1"/>
<ellipse cx="321" cy="258" fill="#000000" rx="51.0" ry="20.0" stroke="#000000" stroke-width="1"/>
<ellipse cx="321" cy="258" fill="#ffffff" rx="50.0" ry="19.0" stroke="#ffffff" stroke-width="1"/>
<text font-family="Dialog" font-size="12" x="288" y="259">
Cadastrar-se</text>
<text font-family="Dialog" font-size="12" x="244" y="210">
Usuário Não Cadastrado</text>
<ellipse cx="309" cy="159" fill="#000000" rx="8.0" ry="7.5" stroke="#000000" stroke-width="1"/>
<ellipse cx="309" cy="159" fill="#ffffff" rx="7.0" ry="6.5" stroke="#ffffff" stroke-width="1"/>
<line fill="#000000" stroke="#000000" stroke-width="1" x1="309" x2="309" y1="167" y2="182"/>
<line fill="#000000" stroke="#000000" stroke-width="1" x1="299" x2="319" y1="172" y2="172"/>
<line fill="#000000" stroke="#000000" stroke-width="1" x1="309" x2="304" y1="182" y2="197"/>
<line fill="#000000" stroke="#000000" stroke-width="1" x1="309" x2="314" y1="182" y2="197"/>
<polyline fill="none" points="300,156 234,124" stroke="#333399" stroke-width="1"/>
<polygon fill="#ffffff" points="234,124 247,122 241,135" stroke="#ffffff" stroke-width="1"/>
<polygon fill="none" points="234,124 247,122 241,135" stroke="#333399" stroke-width="1"/>
<polyline fill="none" points="317,238 314,220" stroke="#333399" stroke-width="1"/>
<ellipse cx="100" cy="113" fill="#000000" rx="86.0" ry="27.0" stroke="#000000" stroke-width="1"/>
<ellipse cx="100" cy="113" fill="#ffffff" rx="85.0" ry="26.0" stroke="#ffffff" stroke-width="1"/>
<text font-family="Dialog" font-size="12" x="31" y="114">
Visualizar Perfis Existentes</text>
<polyline fill="none" points="182,120 224,124" stroke="#333399" stroke-width="1"/>
<text font-family="Dialog" font-size="12" x="404" y="682">
Banco de Dados de Cartas</text>
<ellipse cx="429" cy="631" fill="#000000" rx="8.0" ry="7.5" stroke="#000000" stroke-width="1"/>
<ellipse cx="429" cy="631" fill="#ffffff" rx="7.0" ry="6.5" stroke="#ffffff" stroke-width="1"/>
<line fill="#000000" stroke="#000000" stroke-width="1" x1="429" x2="429" y1="639" y2="654"/>
<line fill="#000000" stroke="#000000" stroke-width="1" x1="419" x2="439" y1="644" y2="644"/>
<line fill="#000000" stroke="#000000" stroke-width="1" x1="429" x2="424" y1="654" y2="669"/>
<line fill="#000000" stroke="#000000" stroke-width="1" x1="429" x2="434" y1="654" y2="669"/>
<ellipse cx="208" cy="619" fill="#000000" rx="58.0" ry="21.0" stroke="#000000" stroke-width="1"/>
<ellipse cx="208" cy="619" fill="#ffffff" rx="57.0" ry="20.0" stroke="#ffffff" stroke-width="1"/>
<text font-family="Dialog" font-size="12" x="165" y="620">
Importar Cartas</text>
<polyline fill="none" points="265,621 420,628" stroke="#333399" stroke-width="1"/>
<polyline fill="none" points="166,604 98,580" stroke="#333399" stroke-width="1"/>
<ellipse cx="89" cy="47" fill="#000000" rx="75.0" ry="25.0" stroke="#000000" stroke-width="1"/>
<ellipse cx="89" cy="47" fill="#ffffff" rx="74.0" ry="24.0" stroke="#ffffff" stroke-width="1"/>
<text font-family="Dialog" font-size="12" x="30" y="48">
Buscar Decks Públicos</text>
<polyline fill="none" points="160,54 220,60" stroke="#333399" stroke-width="1"/>
<line fill="#000000" stroke="#000000" stroke-width="1" x1="403" x2="399" y1="434" y2="432"/>
<line fill="#000000" stroke="#000000" stroke-width="1" x1="395" x2="390" y1="430" y2="428"/>
<line fill="#000000" stroke="#000000" stroke-width="1" x1="386" x2="381" y1="426" y2="423"/>
<line fill="#000000" stroke="#000000" stroke-width="1" x1="377" x2="372" y1="421" y2="419"/>
<line fill="#000000" stroke="#000000" stroke-width="1" x1="368" x2="363" y1="417" y2="415"/>
<line fill="#000000" stroke="#000000" stroke-width="1" x1="359" x2="354" y1="412" y2="410"/>
<line fill="#000000" stroke="#000000" stroke-width="1" x1="350" x2="345" y1="408" y2="406"/>
<line fill="#000000" stroke="#000000" stroke-width="1" x1="341" x2="336" y1="404" y2="401"/>
<line fill="#000000" stroke="#000000" stroke-width="1" x1="332" x2="327" y1="399" y2="397"/>
<line fill="#000000" stroke="#000000" stroke-width="1" x1="323" x2="318" y1="395" y2="393"/>
<line fill="#000000" stroke="#000000" stroke-width="1" x1="314" x2="309" y1="390" y2="388"/>
<line fill="#000000" stroke="#000000" stroke-width="1" x1="318" x2="305" y1="384" y2="386"/>
<line fill="#000000" stroke="#000000" stroke-width="1" x1="312" x2="305" y1="397" y2="386"/>
<text font-family="Dialog" font-size="12" x="337" y="379">
&lt;&lt;extend&gt;&gt;</text>
<line fill="#000000" stroke="#000000" stroke-width="1" x1="373" x2="368" y1="446" y2="446"/>
<line fill="#000000" stroke="#000000" stroke-width="1" x1="363" x2="358" y1="445" y2="444"/>
<line fill="#000000" stroke="#000000" stroke-width="1" x1="353" x2="348" y1="444" y2="443"/>
<line fill="#000000" stroke="#000000" stroke-width="1" x1="343" x2="338" y1="442" y2="442"/>
<line fill="#000000" stroke="#000000" stroke-width="1" x1="333" x2="328" y1="441" y2="440"/>
<line fill="#000000" stroke="#000000" stroke-width="1" x1="323" x2="318" y1="440" y2="439"/>
<line fill="#000000" stroke="#000000" stroke-width="1" x1="313" x2="308" y1="438" y2="437"/>
<line fill="#000000" stroke="#000000" stroke-width="1" x1="303" x2="301" y1="437" y2="436"/>
<line fill="#000000" stroke="#000000" stroke-width="1" x1="313" x2="301" y1="430" y2="436"/>
<line fill="#000000" stroke="#000000" stroke-width="1" x1="311" x2="301" y1="444" y2="436"/>
<text font-family="Dialog" font-size="12" x="307" y="414">
&lt;&lt;extend&gt;&gt;</text>
<line fill="#000000" stroke="#000000" stroke-width="1" x1="446" x2="446" y1="430" y2="425"/>
<line fill="#000000" stroke="#000000" stroke-width="1" x1="445" x2="445" y1="420" y2="415"/>
<line fill="#000000" stroke="#000000" stroke-width="1" x1="444" x2="443" y1="410" y2="405"/>
<line fill="#000000" stroke="#000000" stroke-width="1" x1="443" x2="442" y1="400" y2="395"/>
<line fill="#000000" stroke="#000000" stroke-width="1" x1="442" x2="441" y1="390" y2="385"/>
<line fill="#000000" stroke="#000000" stroke-width="1" x1="440" x2="440" y1="380" y2="375"/>
<line fill="#000000" stroke="#000000" stroke-width="1" x1="439" x2="439" y1="370" y2="365"/>
<line fill="#000000" stroke="#000000" stroke-width="1" x1="438" x2="437" y1="360" y2="355"/>
<line fill="#000000" stroke="#000000" stroke-width="1" x1="437" x2="436" y1="350" y2="345"/>
<line fill="#000000" stroke="#000000" stroke-width="1" x1="436" x2="435" y1="340" y2="335"/>
<line fill="#000000" stroke="#000000" stroke-width="1" x1="442" x2="434" y1="342" y2="331"/>
<line fill="#000000" stroke="#000000" stroke-width="1" x1="428" x2="434" y1="343" y2="331"/>
<text font-family="Dialog" font-size="12" x="444" y="373">
&lt;&lt;extend&gt;&gt;</text>
<line fill="#000000" stroke="#000000" stroke-width="1" x1="430" x2="430" y1="294" y2="289"/>
<line fill="#000000" stroke="#000000" stroke-width="1" x1="429" x2="429" y1="284" y2="279"/>
<line fill="#000000" stroke="#000000" stroke-width="1" x1="428" x2="428" y1="274" y2="269"/>
<line fill="#000000" stroke="#000000" stroke-width="1" x1="427" x2="427" y1="264" y2="259"/>
<line fill="#000000" stroke="#000000" stroke-width="1" x1="426" x2="426" y1="254" y2="249"/>
<line fill="#000000" stroke="#000000" stroke-width="1" x1="425" x2="425" y1="244" y2="239"/>
<line fill="#000000" stroke="#000000" stroke-width="1" x1="424" x2="424" y1="234" y2="229"/>
<line fill="#000000" stroke="#000000" stroke-width="1" x1="423" x2="423" y1="224" y2="219"/>
<line fill="#000000" stroke="#000000" stroke-width="1" x1="422" x2="422" y1="214" y2="209"/>
<line fill="#000000" stroke="#000000" stroke-width="1" x1="421" x2="421" y1="204" y2="199"/>
<line fill="#000000" stroke="#000000" stroke-width="1" x1="420" x2="420" y1="194" y2="189"/>
<line fill="#000000" stroke="#000000" stroke-width="1" x1="419" x2="419" y1="184" y2="179"/>
<line fill="#000000" stroke="#000000" stroke-width="1" x1="418" x2="418" y1="174" y2="169"/>
<line fill="#000000" stroke="#000000" stroke-width="1" x1="417" x2="417" y1="164" y2="159"/>
<line fill="#000000" stroke="#000000" stroke-width="1" x1="416" x2="415" y1="154" y2="149"/>
<line fill="#000000" stroke="#000000" stroke-width="1" x1="423" x2="415" y1="160" y2="149"/>
<line fill="#000000" stroke="#000000" stroke-width="1" x1="409" x2="415" y1="161" y2="149"/>
<text font-family="Dialog" font-size="12" x="425" y="224">
&lt;&lt;include&gt;&gt;</text>
</svg>
